<svg xmlns="http://www.w3.org/2000/svg" viewBox="0 0 512 512" width="512" height="512">
	<style>
		tspan { white-space:pre }
		.shp0 { fill: #ffffff } 
	</style>
	<path id="Layer" fill-rule="evenodd" class="shp0" d="M492.2 175.5C518.2 239.9 487.2 313.1 423 339.2C422.3 339.5 421.6 339.8 420.9 340.1C392.5 352.5 373.5 381.1 372.5 412.8L372 430.7L372 480.2C372 482.9 370.2 485.3 367.6 486L364.9 486.8C292.5 507.5 215.6 507.2 143.3 486C140.8 485.2 139 482.9 139 480.2L139 414.6C139.1 382.1 120.4 352.8 91.2 340.1L89.1 339.2C44.4 321.1 14 279 10.9 230.8C6.4 161.6 59 101.8 128.3 97.3C140.7 58.7 171 28.4 209.6 16C275.7 -5.2 346.5 31.2 367.7 97.3C370.3 97.1 373 97 375.7 97C426.9 97.1 473 128.1 492.2 175.5ZM359.9 461.4C291.5 480 219.3 480 150.9 461.4L150.9 475.6C219.3 494.8 291.6 494.8 359.9 475.6L359.9 461.4ZM359.9 434.8C291.5 453.4 219.3 453.4 150.9 434.8L150.9 449C219.3 468.2 291.6 468.2 359.9 449L359.9 434.8ZM489.4 222.7C489.4 159.9 438.5 109 375.7 109C371.8 109 367.9 109.2 364 109.6C361.1 109.9 358.4 108 357.6 105.2C347 67 317.2 37 279 26.2C218.5 9.1 155.7 44.3 138.6 104.7C137.9 107.3 135.6 109 133 109.1C88 110.4 47.9 138.2 31 180C7.4 238.2 35.4 304.5 93.5 328.1C94.3 328.4 95.1 328.8 95.9 329.1C129.4 343.7 151 377.3 150.9 414.6L150.9 422.4C219.3 441.6 291.7 441.6 360.1 422.3L360.4 412.4C361.5 376.1 383.3 343.4 416 329.1C416.8 328.8 417.6 328.4 418.4 328.1C461.3 310.7 489.4 269.1 489.4 222.7Z" />
	<path id="Layer" class="shp0" d="M249.4 53.6C214.3 53.6 181.6 71.3 162.4 100.7C160.6 103.5 161.4 107.2 164.1 109C166.9 110.8 170.6 110 172.4 107.3C189.4 81.3 218.3 65.6 249.4 65.7C252.7 65.7 255.4 63 255.4 59.7C255.4 56.4 252.7 53.6 249.4 53.6L249.4 53.6Z" />
	<path id="Layer" class="shp0" d="M103.9 140.1C72.9 158.9 54.1 192.5 54.2 228.8C54.2 232.1 56.9 234.8 60.2 234.8C63.5 234.8 66.2 232.1 66.2 228.8C66.1 196.8 82.8 167 110.2 150.4C113 148.7 114 145 112.3 142.2C110.6 139.4 106.8 138.4 103.9 140.1L103.9 140.1Z" />
	<path id="Layer" class="shp0" d="M288.6 311.8C285.3 311.4 282.3 313.8 282 317.1L271.4 412.9C271 416.2 273.4 419.2 276.7 419.5L277.4 419.5C280.5 419.5 283 417.2 283.4 414.2L294 318.5C294.3 315.2 291.9 312.2 288.6 311.8L288.6 311.8Z" />
	<path id="Layer" class="shp0" d="M353.3 322.6C350.1 321.8 346.8 323.8 346 327L324.7 412.1C323.9 415.3 325.9 418.6 329.1 419.4C332.3 420.2 335.6 418.2 336.4 415L357.7 329.9C358.4 326.7 356.5 323.4 353.3 322.6L353.3 322.6Z" />
	<path id="Layer" class="shp0" d="M230 317.1C229.7 313.8 226.7 311.4 223.4 311.7C220.1 312 217.7 315 218 318.3L218 318.4L228.6 414.2C228.9 417.2 231.5 419.5 234.6 419.5L235.3 419.5C238.6 419.1 241 416.2 240.6 412.9L230 317.1Z" />
	<path id="Layer" class="shp0" d="M166 327C165.2 323.8 162 321.8 158.8 322.6C155.6 323.4 153.6 326.6 154.4 329.8L154.4 329.9L175.7 415C176.5 418.2 179.8 420.1 183 419.3C186.2 418.5 188.1 415.3 187.3 412.1L166 327Z" />
</svg>