<svg id="Layer_1" enable-background="new 0 0 512 512" height="512" viewBox="0 0 512 512" width="512" xmlns="http://www.w3.org/2000/svg"><path d="m492.2 175.5c-19.2-47.4-65.3-78.4-116.5-78.5-2.7 0-5.4.1-8 .3-21.2-66.1-92-102.5-158.1-81.3-38.6 12.4-68.9 42.7-81.3 81.3-69.3 4.5-121.9 64.3-117.4 133.5 3.1 48.2 33.5 90.3 78.2 108.4l2.1.9c29.2 12.7 47.9 42 47.8 74.5v16 49.6c0 2.7 1.8 5 4.3 5.8 72.3 21.2 149.2 21.5 221.6.8l2.7-.8c2.6-.7 4.4-3.1 4.4-5.8v-49.5l.5-17.9c1-31.7 20-60.3 48.4-72.7.7-.3 1.4-.6 2.1-.9 64.2-26.1 95.2-99.3 69.2-163.7zm-132.3 300.1c-68.3 19.2-140.6 19.2-209 0v-14.2c68.4 18.6 140.6 18.6 209 0zm0-26.6c-68.3 19.2-140.6 19.2-209 0v-14.2c68.4 18.6 140.6 18.6 209 0zm58.5-120.9c-.8.3-1.6.7-2.4 1-32.7 14.3-54.5 47-55.6 83.3l-.3 9.9c-68.4 19.3-140.8 19.3-209.2.1v-7.8c.1-37.3-21.5-70.9-55-85.5-.8-.3-1.6-.7-2.4-1-58.1-23.6-86.1-89.9-62.5-148.1 16.9-41.8 57-69.6 102-70.9 2.6-.1 4.9-1.8 5.6-4.4 17.1-60.4 79.9-95.6 140.4-78.5 38.2 10.8 68 40.8 78.6 79 .8 2.8 3.5 4.7 6.4 4.4 3.9-.4 7.8-.6 11.7-.6 62.8 0 113.7 50.9 113.7 113.7 0 46.4-28.1 88-71 105.4z"/><path d="m249.4 53.6c-35.1 0-67.8 17.7-87 47.1-1.8 2.8-1 6.5 1.7 8.3 2.8 1.8 6.5 1 8.3-1.7 17-26 45.9-41.7 77-41.6 3.3 0 6-2.7 6-6s-2.7-6.1-6-6.1z"/><path d="m103.9 140.1c-31 18.8-49.8 52.4-49.7 88.7 0 3.3 2.7 6 6 6s6-2.7 6-6c-.1-32 16.6-61.8 44-78.4 2.8-1.7 3.8-5.4 2.1-8.2s-5.5-3.8-8.4-2.1z"/><path d="m288.6 311.8c-3.3-.4-6.3 2-6.6 5.3l-10.6 95.8c-.4 3.3 2 6.3 5.3 6.6h.7c3.1 0 5.6-2.3 6-5.3l10.6-95.7c.3-3.3-2.1-6.3-5.4-6.7z"/><path d="m353.3 322.6c-3.2-.8-6.5 1.2-7.3 4.4l-21.3 85.1c-.8 3.2 1.2 6.5 4.4 7.3s6.5-1.2 7.3-4.4l21.3-85.1c.7-3.2-1.2-6.5-4.4-7.3z"/><path d="m230 317.1c-.3-3.3-3.3-5.7-6.6-5.4s-5.7 3.3-5.4 6.6v.1l10.6 95.8c.3 3 2.9 5.3 6 5.3h.7c3.3-.4 5.7-3.3 5.3-6.6z"/><path d="m166 327c-.8-3.2-4-5.2-7.2-4.4s-5.2 4-4.4 7.2v.1l21.3 85.1c.8 3.2 4.1 5.1 7.3 4.3s5.1-4 4.3-7.2z"/></svg>