<svg xmlns="http://www.w3.org/2000/svg" width="57.849" height="56.725" viewBox="0 0 57.849 56.725"><defs><style>.a{fill:#fff;}</style></defs><g transform="translate(0 -2.917)"><path class="a" d="M96.482,52.621a5.132,5.132,0,0,1-.669-.974,17,17,0,1,1-.429-3.981l1.54-11.452.035-.257a23.856,23.856,0,0,0-33.123-3.092v5.509A9.359,9.359,0,0,1,59.5,46.262V65.548a23.876,23.876,0,0,0,39.252-.924V54.119A5.118,5.118,0,0,1,96.482,52.621Z" transform="translate(-48.033 -19.911)"/><path class="a" d="M100.522,78.318a14.12,14.12,0,1,0,14.12,14.12A14.136,14.136,0,0,0,100.522,78.318Z" transform="translate(-69.75 -60.869)"/><path class="a" d="M267.536,5.145a2.228,2.228,0,0,0-4.435-.3l-3.255,24.2a2.227,2.227,0,0,0,2.208,2.525h1.307V57.522a2.12,2.12,0,0,0,4.24,0Z" transform="translate(-209.751)"/><path class="a" d="M12.913,10.862a1.445,1.445,0,1,0-2.891,0v8H7.9v-8a1.445,1.445,0,1,0-2.891,0v8H2.891v-8a1.445,1.445,0,1,0-2.891,0V23.9A6.467,6.467,0,0,0,4.336,30V62.77a2.12,2.12,0,0,0,4.24,0V30a6.467,6.467,0,0,0,4.336-6.1Z" transform="translate(0 -5.247)"/></g></svg>